<svg width="167" height="201" viewBox="0 0 167 201" fill="none" xmlns="http://www.w3.org/2000/svg">
<path d="M76.7523 30.0486L76.6513 29.9916L76.5383 30.0976C76.6083 30.1196 76.6783 30.1416 76.7473 30.1646L76.7523 30.0486ZM47.3153 127.519C48.0653 128.847 49.2043 129.328 50.6903 129.088C51.5043 128.956 52.3203 128.791 53.1403 128.766C54.5113 128.724 54.9273 128.077 54.5653 126.817C55.2583 126.097 54.9203 125.134 55.1573 124.308C56.0683 124.154 56.2063 123.47 56.2313 122.721C56.2783 121.362 56.1513 120.018 56.0283 118.662C55.8963 117.2 54.6913 116.529 54.1673 115.238C53.6903 116.297 53.3203 117.233 52.8553 118.119C52.4713 118.851 51.9923 119.753 51.0533 119.61C49.3843 119.356 48.7773 120.458 48.0403 121.54C47.5143 122.314 47.0953 123.15 46.4423 123.862C45.8823 124.474 45.7083 125.344 46.2783 126.152C46.1273 126.984 46.7333 127.241 47.3153 127.519ZM105.977 131.909C114.496 134.138 122.761 137.057 130.682 140.928C131.335 141.248 131.908 141.565 132.443 142.357C129.062 141.966 126.22 140.39 123.186 139.467C119.926 138.476 116.677 137.446 113.402 136.509C111.65 136.008 109.849 135.684 108.078 135.243C107.211 135.028 106.356 134.824 105.457 135.003C105.231 134.665 104.881 134.48 104.658 134.883C104.475 135.215 104.9 135.295 105.166 135.369C105.433 135.578 105.698 135.787 105.965 135.996C82.2363 133.067 58.5593 133.034 34.8683 136.491C37.3933 135.084 40.2533 134.766 42.7323 133.377C32.1413 134.918 21.8263 137.542 11.8223 141.426C21.2543 136.552 31.2043 133.096 41.5573 130.458C40.8103 129.462 39.5783 129.528 38.7793 128.854C39.2123 128.394 38.9873 127.956 38.7353 127.52C39.1003 125.583 40.5353 124.303 41.8233 123.08C43.4903 121.498 44.1313 119.486 44.0433 117.516C43.9013 114.363 45.1193 111.841 46.4803 109.195C48.0083 106.224 49.1673 103.096 48.2933 99.6086C47.6833 97.1786 48.3413 94.9416 49.4903 92.7886C50.8203 90.2976 52.1623 87.8266 51.5463 84.7896C51.1933 83.0536 50.2533 81.6646 49.3373 80.2476C48.8413 79.4796 48.2463 79.7056 47.5403 80.1966C43.7333 82.8466 41.2383 86.6856 38.6903 90.3676C37.3613 92.2876 36.2453 94.6616 36.4123 97.2926C36.4493 97.8616 36.3873 98.7706 35.6543 98.9376C34.7943 99.1326 34.8603 98.0906 34.3643 97.5576C33.5993 98.2766 33.4383 99.4606 32.4793 99.9856C32.2263 100.124 32.0283 100.398 31.7013 100.238C31.3063 100.043 31.3103 99.6816 31.3963 99.3226C31.6013 98.4746 32.2393 97.7356 32.0383 96.7836L32.1283 96.6686L32.0533 96.7986C31.0983 97.2516 30.6273 98.1836 29.9623 98.9206C29.4503 99.4876 29.0693 100.743 28.1463 99.9756C27.2073 99.1966 28.4503 98.5816 28.8603 97.9716C29.4443 97.1046 30.3423 96.4506 30.6233 95.3736L30.6743 95.3146L30.6363 95.3886C29.5773 95.2326 29.2233 96.3836 28.3663 96.6136C27.9843 96.7156 27.5483 97.1006 27.2743 96.6196C27.1623 96.4236 27.3983 95.9376 27.5953 95.6736C28.1973 94.8676 29.2403 94.5386 29.7973 93.6526C30.2973 92.8556 30.6193 92.2356 29.2113 92.2376C28.7173 92.2376 27.9813 92.4416 27.8623 91.7396C27.7063 90.8166 28.6363 91.0286 29.1113 90.8566C33.7103 89.1896 36.3253 85.9456 37.0233 81.1096C37.1283 80.3736 37.3183 79.6696 37.8083 78.9926C38.4753 78.0716 38.5873 76.9026 38.8293 75.7596C39.3873 73.1166 40.6953 70.7316 42.4803 68.5886C44.0363 66.7196 45.6353 64.9866 47.9613 63.9196C46.0053 63.1006 44.0583 62.8106 42.2083 62.1456C40.1233 61.3956 38.3773 60.1706 36.5843 58.9836C36.0033 58.5986 35.6843 58.1356 34.7593 58.4066C33.6683 58.7266 33.5453 57.5156 33.6963 56.8796C33.9963 55.6316 33.5963 55.2376 32.4243 54.9656C31.6503 54.7856 30.9683 54.0726 30.7783 53.2326C30.6663 52.7366 29.9383 51.2896 31.6693 52.1976C32.2323 52.4926 32.3593 52.1336 32.4713 51.6616C33.9423 45.4016 37.7133 41.1616 43.7253 38.9036C43.9463 38.8206 44.1693 38.7386 44.3873 38.6446C46.2543 37.8396 46.3043 37.6666 45.1563 36.0386C47.8633 35.1606 51.2113 37.4966 51.1593 40.3176C51.1403 41.4096 51.4743 42.1566 52.1893 42.9836C53.7573 44.7996 54.9933 46.8476 57.0413 48.2986C58.5733 49.3826 58.7793 51.3066 58.6873 53.1546C58.6663 53.5456 58.4713 54.0656 58.8863 54.3036C59.4183 54.6076 59.7573 54.0266 60.0633 53.7606C60.5433 53.3436 60.8853 52.7646 61.2683 52.2416C62.2073 50.9536 62.8023 49.5696 64.4803 48.6876C65.8703 47.9576 66.5163 45.8816 67.6013 44.4866C70.2303 41.1076 71.1663 37.5046 69.3553 33.4316C69.1163 32.8956 68.9063 32.2456 69.4403 31.7766C69.9843 31.2986 70.4053 31.7786 70.8153 32.1236C71.5223 32.7186 71.7663 32.1736 71.8763 31.6186C72.0023 30.9846 71.9503 30.3136 72.0843 29.6816C72.2203 29.0386 72.0123 28.1606 72.9193 27.9116C73.9033 27.6396 73.8983 28.7366 74.5863 29.2486C74.8083 28.5476 75.0073 27.9226 75.2043 27.2956C75.3373 26.8736 75.5593 26.4976 76.0513 26.5386C76.5893 26.5836 76.6533 27.0456 76.6553 27.4696C76.6623 28.7336 76.4473 30.1936 78.4443 28.7266C78.9773 28.3366 79.3333 28.8866 79.2663 29.4366C79.2013 29.9526 78.9923 30.4546 78.8183 30.9536C78.5813 31.6296 78.2423 32.3416 79.5193 31.9656C79.8723 31.8606 80.2483 31.8326 80.4793 32.1856C80.7673 32.6266 80.5203 33.0206 80.1933 33.2776C78.8613 34.3236 78.1883 35.8846 77.1483 37.1596C76.1483 38.3846 75.4453 39.8286 75.2413 41.4906C74.9113 44.1866 74.4273 46.8406 72.8743 49.1976C72.3623 49.9746 72.2173 50.8566 72.4673 52.0016C72.9083 54.0246 71.5533 55.8176 70.3253 57.2366C66.5473 61.6076 65.6463 66.6396 66.4193 72.1166C66.7333 74.3366 67.5273 76.4286 68.8403 78.3096C72.7863 83.9656 72.6673 94.2986 68.6063 99.8946C67.9523 100.796 67.8303 101.867 67.5603 102.876C66.6433 106.303 65.8523 109.765 64.9373 113.194C64.5013 114.823 63.6433 116.328 63.4773 118.049C63.4523 118.288 63.1863 118.567 62.9583 118.711C60.6783 120.163 60.2953 121.153 61.0233 123.827C61.0853 125.852 62.7793 125.934 64.1223 126.434L64.1463 126.45L64.2673 126.427C64.8073 126.499 65.3473 126.571 65.8873 126.645C66.7533 127.516 67.8673 127.601 68.9973 127.612C71.9443 127.641 74.9003 127.522 77.8353 127.725C80.3443 127.9 82.8903 127.77 85.3643 128.376C85.1323 129.159 84.6703 130.051 85.9653 130.32C88.1003 130.765 90.1883 131.392 92.4373 131.282C93.7393 131.218 94.7543 131.053 95.2913 129.757C96.7753 129.935 98.3213 129.835 99.6413 130.739C99.0793 131.487 98.0563 132.442 98.5583 133.162C99.1993 134.083 100.568 133.838 101.674 133.527C101.899 133.463 102.109 133.342 102.33 133.26C103.545 132.807 104.761 132.359 105.977 131.909Z" fill="#186DB6"/>
<path d="M134.117 136.656C130.117 134.74 126.054 133.013 121.897 131.469C117.072 129.677 112.165 128.193 107.16 127.015C106.443 126.846 105.845 126.606 105.503 125.856C104.75 124.201 103.847 122.632 104.128 120.669C104.305 119.427 103.983 118.154 103.391 117.055C102.159 114.771 101.794 112.319 102.06 109.823C102.438 106.286 102.13 102.935 100.838 99.5709C99.8659 97.0399 99.7939 94.3419 101.481 91.9049C101.944 91.2349 102.576 90.7209 103.207 91.3819C104.104 92.3209 105.684 92.8969 106.059 93.8119C107.338 96.9329 110.478 98.9169 111.034 102.458C111.226 103.682 111.362 104.906 111.516 106.132C111.61 106.881 111.86 107.531 112.687 106.605C113.312 105.906 113.675 106.269 113.992 106.914C114.243 107.425 114.189 108.225 114.873 108.35C115.843 108.527 115.135 107.158 116.016 107.025C116.295 107.319 116.61 107.653 116.926 107.987C117.283 108.364 117.72 108.618 118.149 108.199C118.509 107.849 118.253 107.399 118.018 107.068C117.731 106.665 117.068 106.492 117.295 105.797C117.138 105.742 116.962 105.635 117.108 105.479C117.254 105.324 117.378 105.477 117.43 105.646C117.97 105.335 118.602 106.451 118.983 105.664C119.258 105.096 118.551 104.628 118.233 104.155C118.05 103.883 117.644 103.769 117.405 103.521C116.828 102.924 116.636 102.385 117.766 102.264C118.19 102.219 118.687 102.197 118.706 101.668C118.723 101.134 118.277 100.918 117.805 100.725C114.502 99.3799 112.467 97.0399 111.881 93.4279C111.553 91.4019 110.951 89.4179 110.458 87.4189C109.488 83.4829 107.321 80.4169 103.834 78.3039C103.726 78.2389 103.719 78.0089 103.635 77.7729C104.636 77.4849 105.556 77.4669 106.39 78.0099C106.904 78.3439 107.312 78.4229 107.821 78.0339C110.448 76.0219 113.763 74.8629 115.408 71.6279C115.925 70.6129 117.332 70.5189 118.296 70.2879C119.227 70.0659 119.454 71.4719 119.748 72.2429C120.377 73.8979 120.773 75.6409 121.374 77.3089C121.854 78.6439 122.91 79.3979 124.544 79.8659C123.845 78.4319 122.6 77.4799 122.939 75.8019C124.33 76.4829 124.869 78.5179 126.938 77.7979C124.846 76.6079 123.673 74.8319 122.965 72.7049C122.816 72.2599 122.509 71.9039 122.264 71.5119C119.669 67.3619 115.842 64.3979 112.255 61.2459C108.971 58.3609 104.028 58.7279 100.716 61.5759C99.6559 62.4879 98.7509 63.1669 99.5459 64.7579C99.8519 65.3729 99.0809 65.8959 98.6209 66.3449C97.7699 67.1769 96.9839 68.0339 96.5179 69.1689C96.2919 69.7179 96.6539 70.6919 95.7519 70.7659C94.8149 70.8429 94.6219 69.8649 94.2029 69.2529C93.4809 68.1969 93.2189 66.9169 92.1469 65.9989C89.4089 63.6529 87.8059 60.6149 87.3979 57.0049C87.2389 55.6009 87.7289 54.3249 88.3329 53.0819C88.5389 52.6579 88.6759 52.1779 88.2869 51.7529C88.0979 51.5489 87.8639 51.5549 87.6449 51.6909C85.5599 52.9829 86.0979 51.2179 85.9759 50.2509C85.9049 49.6769 86.1279 48.9009 85.5109 48.6369C84.6279 48.2599 85.0209 49.6209 84.3549 49.7569C84.2679 49.5259 84.2079 49.3639 84.1469 49.2009C83.8959 48.5229 84.0669 47.3029 83.1719 47.3729C82.3469 47.4379 82.8319 48.5459 82.7369 49.1959C82.6399 49.8579 82.4289 50.3119 81.7669 49.5949C81.4639 49.2659 81.2359 48.6289 80.6889 49.0069C80.2319 49.3229 80.5769 49.8739 80.6749 50.3269C80.7529 50.6929 81.0799 51.3089 80.4959 51.3549C78.1789 51.5379 79.8279 52.5729 80.1459 53.1109C81.6329 55.6139 83.5449 57.8719 83.4759 61.0879C83.4429 62.5949 84.0119 64.1049 84.5739 65.5509C84.7629 66.0369 85.0659 66.6669 84.9079 67.0709C84.0099 69.3719 85.3829 71.0439 86.5759 72.5569C89.7819 76.6239 89.8399 84.2299 86.9409 88.4119C84.6109 91.7769 82.8949 95.5929 83.4599 99.8779C83.9469 103.579 84.7949 107.272 86.3149 110.671C87.7539 113.886 88.1429 117.233 88.5899 120.615C88.6769 121.28 88.7049 121.92 89.4459 122.226C90.0029 122.456 90.6469 122.726 90.3839 123.483C90.1049 124.283 89.3779 123.895 88.8419 123.844C82.9359 123.298 77.0159 122.965 71.0919 123.189C67.7359 123.317 64.3489 123.142 61.0239 123.828C61.0859 125.851 62.7799 125.932 64.1229 126.432C64.2129 126.43 64.2629 126.428 64.2689 126.427C64.8069 126.499 65.3469 126.572 65.8879 126.643C67.4479 126.085 69.0129 126.641 70.5759 126.635C76.1029 126.608 81.6209 126.801 87.3789 127.638C86.5729 127.934 85.9699 128.156 85.3649 128.377C85.1329 129.159 84.6709 130.051 85.9659 130.32C88.0999 130.764 90.1879 131.391 92.4369 131.281C93.7399 131.219 94.7549 131.052 95.2919 129.757C95.0429 129.057 95.1529 128.551 96.0289 128.67C97.5259 128.874 99.0169 129.137 100.509 129.389C100.791 129.437 101.174 129.551 101.053 129.907C100.838 130.542 100.251 130.692 99.6419 130.739C99.0799 131.487 98.0559 132.441 98.5579 133.161C99.1999 134.082 100.569 133.837 101.675 133.526C101.9 133.463 102.11 133.342 102.331 133.259C103.546 132.807 104.762 132.358 105.977 131.909C106.725 131.109 107.704 131.133 108.615 131.35C113.767 132.582 118.966 133.684 123.981 135.392C132.489 138.289 140.722 141.834 148.475 146.435C149.546 147.07 150.632 147.872 152.436 148.102C151.511 147.257 150.994 146.681 150.381 146.243C145.244 142.566 139.82 139.387 134.117 136.656Z" fill="#9CC83B"/>
<path d="M115.392 106.215C115.465 106.276 115.587 106.327 115.599 106.398C115.614 106.485 115.537 106.587 115.496 106.69C115.42 106.626 115.299 106.572 115.288 106.502C115.276 106.413 115.354 106.311 115.392 106.215Z" fill="#9CC83B"/>
<path d="M80.9059 51.8582L80.8379 51.7482L80.9379 51.6662L81.0059 51.7762L80.9059 51.8582Z" fill="#9CC83B"/>
<path d="M100.998 125.547C99.0176 125.273 97.0356 125.008 95.0586 124.717C94.5976 124.65 94.3296 124.347 94.3586 123.846C94.3866 123.38 94.5706 123.014 95.0926 123.031C96.6876 123.083 98.2946 123.109 99.8476 123.516C100.698 123.738 100.731 124.66 101.263 125.175C101.175 125.298 101.086 125.423 100.998 125.547Z" fill="#9CC83B"/>
<path d="M99.8472 123.517C98.2942 123.11 96.6882 123.083 95.0912 123.032C94.5712 123.015 94.3872 123.38 94.3592 123.847C94.3292 124.348 94.5972 124.65 95.0582 124.718C97.0352 125.01 99.0172 125.273 100.997 125.548C101.085 125.424 101.174 125.3 101.262 125.175C100.731 124.661 100.698 123.74 99.8472 123.517Z" fill="#9CC83B"/>
<path d="M115.496 106.69C115.537 106.586 115.614 106.485 115.6 106.398C115.588 106.327 115.467 106.275 115.392 106.215C115.354 106.311 115.276 106.413 115.289 106.502C115.3 106.572 115.421 106.626 115.496 106.69Z" fill="#9CC83B"/>
<path d="M80.8374 51.7477L80.9054 51.8577L81.0054 51.7757L80.9384 51.6657L80.8374 51.7477Z" fill="#9CC83B"/>
<path d="M24.7855 147.552C30.4865 144.834 36.3845 142.655 42.4775 140.965C46.7505 139.781 51.0555 138.793 55.4175 138.002C56.1085 137.876 56.8035 137.771 57.4965 137.657C61.8755 136.94 66.2745 136.444 70.7065 136.199C71.1665 136.175 71.5855 136.114 71.9485 135.906C76.5565 136.324 81.1945 135.531 85.8235 135.703C86.4045 136.008 87.0865 136.116 87.7355 136.084C87.8305 136.08 87.9275 136.068 88.0235 136.051C88.3155 136.388 88.8775 136.254 89.2985 136.29C95.2075 136.786 101.096 137.495 106.888 138.756C110.169 139.47 118.876 143.23 122.03 144.488C121.614 146.469 114.092 142.2 113.181 143.171C113.092 143.152 113.044 143.141 113.038 143.138C112.495 143.115 109.544 142.19 108.999 142.167C107.561 141.343 108.329 142.519 106.792 142.238C101.536 141.277 96.2495 140.523 90.6495 140.306C90.5105 140.262 90.3705 140.217 90.2305 140.172C89.8405 140.087 89.4595 140.096 89.0855 140.185C88.3055 140.015 87.5175 139.896 86.6005 139.92C85.7485 139.945 84.8615 139.819 84.0175 139.886C83.5065 139.927 82.9695 140.131 82.5165 140.021C82.3275 139.984 82.1455 139.967 81.9695 139.957C81.8485 139.857 81.6605 139.791 81.3765 139.78C79.8655 139.718 78.3515 139.716 76.8395 139.703C76.7015 139.701 76.5375 139.712 76.4105 139.765C75.8115 139.662 75.2645 139.678 74.7405 139.75C74.5845 139.735 74.4285 139.718 74.2705 139.722C72.9215 139.76 71.5725 139.97 70.2385 140.167C70.0185 140.198 69.8025 140.236 69.5865 140.277C69.2385 140.204 68.8755 140.192 68.5145 140.212C63.2265 140.523 57.9145 140.696 52.6775 141.498C43.7945 142.859 35.0675 144.905 26.6265 148.076C25.4625 148.514 24.2525 149.113 22.4355 149.023C23.4945 148.354 24.1035 147.877 24.7855 147.552Z" fill="#003D68"/>
<path d="M66.8734 1.90153C67.7114 2.22253 69.1964 2.35453 70.5384 2.83253C71.6314 3.22153 72.2334 3.01353 73.0574 2.35753C74.2494 1.40553 75.5624 0.574528 77.0564 0.147528C78.9294 -0.388472 79.9554 0.571527 79.5854 2.45353C78.9714 5.58353 79.6494 7.06053 82.4574 8.77453C82.9584 9.08053 83.3864 9.51753 83.9044 9.78353C84.7004 10.1925 84.7724 10.8575 84.6634 11.5885C84.5554 12.3025 84.0844 12.6855 83.3814 12.8795C82.2024 13.2035 80.9844 13.2675 79.8504 13.9125C77.6684 15.1515 76.2704 16.8715 75.7764 19.3215C75.6444 19.9825 75.5244 20.6605 74.6764 20.6955C73.9924 20.7235 73.2434 20.9135 72.7754 20.1115C72.5404 19.7075 72.0424 19.4105 71.9264 18.9915C71.0214 15.7445 68.3034 15.6825 65.7164 15.3885C65.2484 15.3355 64.7634 15.4375 64.2964 15.3765C63.6384 15.2905 62.7244 15.7785 62.3834 14.9395C62.1024 14.2485 62.7424 13.6075 63.0914 13.0125C63.4164 12.4595 63.8564 11.9575 64.3144 11.5005C66.3744 9.44653 66.0814 7.04253 65.3934 4.57253C65.2984 4.23153 65.1754 3.89753 65.0344 3.57353C64.4604 2.25153 64.8474 1.64153 66.8734 1.90153Z" fill="#003D68"/>
<path d="M26.7427 23.7493C26.7477 23.6793 26.6427 23.1423 26.8337 22.7473C28.2767 19.7523 26.3157 18.0783 24.3487 16.5273C23.5107 15.8653 22.9967 15.2483 23.1237 14.1963C23.2637 13.0353 24.3417 12.9793 25.0317 13.0123C28.9407 13.1933 30.9987 10.9213 32.3487 7.69525C32.7177 6.81725 33.3717 6.57525 34.1387 6.52025C35.0677 6.45525 35.4487 7.20025 35.7717 7.91125C35.9407 8.28225 36.0237 8.69225 36.1567 9.08225C37.0077 11.5803 39.0187 12.3223 41.3817 12.5143C42.6787 12.6193 44.1727 12.5403 44.7417 13.9643C45.3317 15.4413 43.7997 16.0813 43.0927 17.0303L42.9697 17.1563C40.1397 18.5003 40.8097 20.8653 41.1997 23.1613C41.2987 23.7403 41.3737 24.3413 41.3387 24.9243C41.2567 26.2853 40.4517 26.8223 39.1787 26.3673C38.2937 26.0503 37.3367 25.7843 36.5957 25.2433C34.9607 24.0503 33.4247 24.3743 31.8357 25.2243C31.2087 25.5593 30.5897 25.9103 29.9437 26.2023C27.6907 27.2263 26.6787 26.5723 26.7427 23.7493Z" fill="#9CC83B"/>
<path d="M110.994 41.5172C109.063 40.5342 107.754 41.8592 106.39 43.3092C105.053 44.7302 103.677 44.4212 103.381 42.4802C103.037 40.2232 101.767 39.2272 99.7967 38.6832C99.1297 38.4972 98.6407 38.0872 98.6207 37.3062C98.5997 36.5032 99.1417 36.0382 99.7697 35.9122C101.93 35.4762 102.588 34.0512 102.564 32.0652C102.556 31.3502 102.575 30.5492 103.369 30.2392C104.163 29.9302 104.993 30.2742 105.436 30.8712C106.807 32.7202 108.571 32.7172 110.513 32.2032C111.157 32.0332 111.83 31.8772 112.3 32.5222C112.742 33.1302 112.577 33.8262 112.213 34.3672C111.041 36.1112 111.316 37.6662 112.593 39.2182C112.99 39.7022 113.317 40.3092 112.857 41.0092C112.45 41.6292 111.867 41.5542 110.994 41.5172Z" fill="#186DB6"/>
<path d="M38.7361 127.519C38.9881 127.956 39.2131 128.394 38.7801 128.853C36.5281 128.769 34.3831 129.583 32.1221 129.572C34.3111 128.833 36.3901 127.761 38.7361 127.519Z" fill="#9CC83B"/>
<path d="M46.2788 126.151C49.0668 124.714 52.1898 124.884 55.1568 124.306C54.9208 125.134 55.2578 126.096 54.5658 126.814C52.1498 127.048 49.7318 127.283 47.3148 127.517C46.7328 127.241 46.1278 126.983 46.2788 126.151Z" fill="#9CC83B"/>
<path d="M64.1226 126.433C64.2126 126.43 64.2626 126.427 64.2686 126.425L64.1466 126.449L64.1226 126.433Z" fill="#FBFBFB"/>
<path d="M105.167 135.369C104.9 135.295 104.476 135.215 104.659 134.883C104.882 134.479 105.231 134.665 105.458 135.003C105.361 135.124 105.264 135.247 105.167 135.369Z" fill="#186DB6"/>
<path d="M76.7506 30.0486L76.7486 30.1646C76.6786 30.1416 76.6076 30.1196 76.5386 30.0976L76.6506 29.9916L76.7506 30.0486Z" fill="#186DB6"/>
<path d="M30.636 95.3879L30.674 95.3139L30.623 95.3729L30.636 95.3879Z" fill="#FBFBFB"/>
<path d="M32.0531 96.7986L32.1281 96.6676L32.0381 96.7836L32.0531 96.7986Z" fill="#FBFBFB"/>
<path d="M115.496 106.69C115.421 106.626 115.3 106.572 115.29 106.502C115.276 106.413 115.354 106.311 115.392 106.215C115.466 106.275 115.588 106.327 115.6 106.398C115.614 106.485 115.537 106.586 115.496 106.69Z" fill="#9CC83B"/>
<path d="M80.9369 51.6663L81.0039 51.7753L80.9049 51.8583L80.8369 51.7483L80.9369 51.6663Z" fill="#9CC83B"/>
<path d="M117.295 105.797C117.139 105.742 116.961 105.636 117.108 105.48C117.254 105.324 117.377 105.477 117.43 105.646L117.295 105.797Z" fill="#9CC83B"/>
<path d="M70.687 159.516C69.419 156.188 66.965 153.81 63.182 152.249C59.442 150.706 55.41 149.956 50.854 149.956C49.591 149.956 48.269 150.016 46.922 150.134C34.535 151.222 24.841 161.422 24.375 173.859C24.086 181.583 26.786 188.167 32.398 193.428C36.926 197.673 43.12 200.107 49.39 200.107C55.903 200.107 61.972 197.545 66.481 192.892C67.217 192.132 67.893 191.297 68.607 190.412L68.689 190.313C68.516 190.24 68.346 190.165 68.179 190.087C66.426 192.279 64.423 194.038 62.227 195.321C59.32 197.017 56.391 197.877 53.521 197.877C50.35 197.877 47.219 196.83 44.215 194.764C39.533 191.543 36.371 186.906 34.817 180.983C33.521 176.041 34.083 171.198 34.717 167.53C35.485 163.088 36.943 159.415 39.176 156.304C41.467 153.11 44.046 151.206 47.06 150.483C48.06 150.244 49.027 150.121 49.936 150.121C53.734 150.121 56.507 152.152 57.954 155.993C58.201 156.646 58.38 157.192 58.521 157.708C58.739 158.51 58.949 159.326 59.152 160.114C59.528 161.573 59.917 163.081 60.359 164.535C60.908 166.342 62.18 167.519 64.248 168.128C64.896 168.32 65.538 168.417 66.154 168.417C68.641 168.417 70.546 166.823 71.124 164.256C71.467 162.74 71.324 161.19 70.687 159.516Z" fill="#003D68"/>
<path d="M9.976 199.152V152.756C9.976 152.273 10.278 151.861 10.703 151.698H0C0.457 151.843 0.788 152.271 0.788 152.777V199.159C0.788 199.556 0.585 199.905 0.276 200.107H10.5C10.185 199.907 9.976 199.553 9.976 199.152Z" fill="#003D68"/>
<path d="M98.7581 178.885H83.1321L90.9541 155.733C91.0701 155.645 91.1971 155.574 91.3431 155.547C91.4651 155.509 91.5821 155.496 91.6881 155.529C92.0851 155.53 92.4381 155.767 92.5771 156.136L100.354 176.617C100.354 176.617 100.703 178.125 98.7581 178.885ZM107.609 199.376L118.841 199.379C117.672 199.304 117.246 198.49 117.028 197.871C111.987 183.593 106.84 169.082 101.862 155.049L100.053 149.946C99.9111 149.546 99.8051 149.393 99.7611 149.342C99.6871 149.35 99.5101 149.391 99.1541 149.574C98.3181 150.004 97.4831 150.437 96.6481 150.868C94.9701 151.738 93.2351 152.635 91.5171 153.503C91.4221 153.551 91.3531 153.601 91.2931 153.658L91.2201 153.615C90.9971 153.542 90.7551 153.66 90.6791 153.883L79.8991 185.791C79.3261 186.959 78.6821 188.087 78.0521 189.188C77.5621 190.043 77.0551 190.927 76.5981 191.805C75.9951 192.964 75.5421 193.942 75.2851 194.943C74.9481 196.256 75.1171 197.502 75.7631 198.45C76.3591 199.325 77.3381 199.89 78.5191 200.037C78.8821 200.083 79.2751 200.107 79.6851 200.107C80.4341 200.107 81.2721 200.031 82.2441 199.875C83.4071 199.689 84.1381 199.012 84.4131 197.864C84.7501 196.461 84.6081 195.276 83.9801 194.239C83.6671 193.724 83.3241 193.204 82.9921 192.701C82.7791 192.377 82.5651 192.053 82.3551 191.726C81.2831 190.048 80.7951 188.298 80.8981 186.511C80.9041 186.39 80.9131 186.268 80.9261 186.146L81.0001 185.195L82.8441 179.739H99.7561L99.7951 179.73C100.862 180.044 101.852 180.587 102.263 181.521L102.264 181.524C103.265 184.232 104.295 186.964 105.295 189.615C105.63 190.505 105.965 191.394 106.3 192.283C106.786 193.575 107.273 194.867 107.775 196.197L108.491 198.1C108.601 198.389 108.561 198.714 108.384 198.969C108.208 199.224 107.918 199.376 107.609 199.376Z" fill="#003D68"/>
<path d="M165.643 152.087C165.043 151.178 164.082 150.555 162.939 150.333C162.353 150.22 161.703 150.156 160.952 150.14L160.855 150.139C159.641 150.139 158.493 150.68 157.702 151.622C156.89 152.59 156.55 153.859 156.771 155.103C157.029 156.563 157.812 157.731 159.164 158.674C161.187 160.084 162.496 161.916 163.1 164.131V183.986C162.963 184.114 162.797 184.212 162.609 184.26C162.211 184.362 161.79 184.242 161.507 183.945C161.426 183.86 161.351 183.782 161.28 183.709C161.132 183.557 160.994 183.413 160.857 183.26L156.425 178.279C148.559 169.441 140.427 160.304 132.413 151.329C132.369 151.29 132.193 151.213 132.064 151.205C131.634 151.183 131.16 151.171 130.573 151.171C130.246 151.171 129.917 151.174 129.59 151.177C129.254 151.181 128.919 151.184 128.584 151.184H124.849C125.304 151.314 125.645 151.723 125.669 152.217C125.674 152.336 125.681 152.444 125.688 152.545C125.701 152.763 125.713 152.969 125.713 153.186C125.713 155.423 125.715 157.661 125.717 159.899C125.718 160.983 125.718 162.072 125.719 163.166C125.723 163.073 125.728 162.984 125.734 162.895V181.827C125.731 181.698 125.72 181.576 125.72 181.446C125.715 179.918 125.712 178.383 125.71 176.847C125.706 178.496 125.701 180.145 125.694 181.786C125.685 183.522 125.457 185.229 125.204 186.97C125.041 188.089 124.841 189.214 124.647 190.302C124.369 191.869 124.08 193.49 123.91 195.076C123.688 197.132 124.314 198.536 125.824 199.368C126.712 199.858 127.703 200.108 128.767 200.108C129.261 200.108 129.775 200.053 130.292 199.946C131.862 199.623 132.856 198.584 133.33 196.772C133.787 195.023 133.321 193.594 131.904 192.401C131.396 191.973 130.846 191.585 130.265 191.176C129.976 190.972 129.678 190.761 129.384 190.545C128.108 189.604 127.176 188.43 126.586 187.047V161.445C126.752 161.355 126.934 161.298 127.122 161.298C127.196 161.298 127.269 161.305 127.341 161.319C127.638 161.378 127.9 161.553 128.067 161.806C128.123 161.892 128.177 161.981 128.231 162.069C128.296 162.178 128.364 162.291 128.41 162.341C131.288 165.459 134.165 168.576 137.044 171.692C145.338 180.672 153.915 189.957 162.316 199.121C162.628 199.462 162.897 199.61 163.187 199.671C163.265 199.777 163.384 199.852 163.527 199.852C163.762 199.852 163.953 199.661 163.953 199.425V163.425C164.076 162.814 164.21 162.208 164.375 161.616C164.573 160.904 164.785 160.189 164.99 159.496C165.415 158.06 165.854 156.573 166.172 155.108C166.406 154.033 166.218 152.96 165.643 152.087Z" fill="#003D68"/>
</svg>
